<?xml version="1.0" encoding="UTF-8"?>
<svg version="1.1" xmlns="http://www.w3.org/2000/svg" width="512" height="512">
<path d="M0 0 C1.01790619 0.00215515 2.03581238 0.0043103 3.08456421 0.00653076 C17.69363523 0.05620146 32.02575853 0.30709809 46.375 3.3125 C47.34985352 3.51117676 48.32470703 3.70985352 49.32910156 3.91455078 C108.89482498 16.37463238 165.24866419 48.2648637 202.375 97.3125 C202.79023926 97.85132812 203.20547852 98.39015625 203.63330078 98.9453125 C228.13415115 130.81517547 244.62642134 167.36831241 252.6875 206.75 C252.83485596 207.46889404 252.98221191 208.18778809 253.1340332 208.9284668 C256.10789088 224.57475609 256.74800362 240.04818046 256.6875 255.9375 C256.68534485 256.95540619 256.6831897 257.97331238 256.68096924 259.02206421 C256.63129854 273.63113523 256.38040191 287.96325853 253.375 302.3125 C253.07698486 303.77478027 253.07698486 303.77478027 252.77294922 305.26660156 C242.52138226 354.27446698 220.18217348 398.27864199 185.375 434.3125 C184.77606934 434.93334473 184.17713867 435.55418945 183.56005859 436.19384766 C175.89623497 444.09500259 168.15501606 451.64016955 159.375 458.3125 C158.83472168 458.72918945 158.29444336 459.14587891 157.73779297 459.57519531 C125.8687531 484.07334707 89.31685217 500.56439938 49.9375 508.625 C49.21860596 508.77235596 48.49971191 508.91971191 47.7590332 509.0715332 C33.08339502 511.86090125 18.55831162 512.66142619 3.64770508 512.62817383 C0.70811513 512.6250221 -2.2304558 512.64854926 -5.16992188 512.67382812 C-18.54306192 512.71848737 -31.43916711 511.51301542 -44.625 509.3125 C-46.33055054 509.03031616 -46.33055054 509.03031616 -48.07055664 508.74243164 C-50.6662622 508.27617402 -53.23774939 507.7574418 -55.8125 507.1875 C-57.20142456 506.88054199 -57.20142456 506.88054199 -58.6184082 506.56738281 C-103.71300222 496.08183329 -144.40193368 473.34639441 -177.625 441.3125 C-178.58889648 440.38945068 -178.58889648 440.38945068 -179.57226562 439.44775391 C-188.74836539 430.62136647 -197.09816554 421.58141996 -204.625 411.3125 C-205.26211914 410.45857666 -205.26211914 410.45857666 -205.91210938 409.58740234 C-212.42768015 400.84658179 -218.26088547 391.80163672 -223.625 382.3125 C-224.0271875 381.60528809 -224.429375 380.89807617 -224.84375 380.16943359 C-237.8691741 357.03404164 -246.61801461 331.86287591 -251.9375 305.875 C-252.08485596 305.15610596 -252.23221191 304.43721191 -252.3840332 303.6965332 C-255.35789088 288.05024391 -255.99800362 272.57681954 -255.9375 256.6875 C-255.93534485 255.66959381 -255.9331897 254.65168762 -255.93096924 253.60293579 C-255.88129854 238.99386477 -255.63040191 224.66174147 -252.625 210.3125 C-252.42632324 209.33764648 -252.22764648 208.36279297 -252.02294922 207.35839844 C-241.90232806 158.9765226 -219.9858123 114.98821731 -185.625 79.3125 C-184.99287598 78.65314453 -184.36075195 77.99378906 -183.70947266 77.31445312 C-174.56502521 67.82619695 -165.26765991 59.0862956 -154.625 51.3125 C-153.47394983 50.45443848 -152.32290823 49.59636549 -151.171875 48.73828125 C-142.98224019 42.70072604 -134.47961724 37.31792698 -125.625 32.3125 C-124.91778809 31.9103125 -124.21057617 31.508125 -123.48193359 31.09375 C-100.34654164 18.0683259 -75.17537591 9.31948539 -49.1875 4 C-48.46860596 3.85264404 -47.74971191 3.70528809 -47.0090332 3.5534668 C-31.36274391 0.57960912 -15.88931954 -0.06050362 0 0 Z M-95.42578125 167.79296875 C-118.38820767 189.75740502 -133.03477634 218.30450706 -133.84448242 250.45019531 C-134.07742512 268.00475682 -130.94657543 285.21304463 -122.77368164 300.87963867 C-116.04178385 313.97922439 -117.66812757 327.49654709 -121.90625 341.22314453 C-126.22033932 353.76389738 -133.88404368 364.67538176 -141.42333984 375.45996094 C-142.65065347 377.35204866 -143.6551249 379.27818276 -144.625 381.3125 C-139.82793987 379.86258174 -135.47987446 377.8411366 -131.05078125 375.53125 C-130.33295471 375.16112289 -129.61512817 374.79099579 -128.87554932 374.40965271 C-126.56072754 373.21468788 -124.24913173 372.01362233 -121.9375 370.8125 C-120.35101398 369.992564 -118.76434355 369.1729847 -117.17749023 368.35375977 C-108.07078546 363.64687422 -98.97294497 358.92077798 -89.95629883 354.04296875 C-83.8506375 350.77596276 -83.8506375 350.77596276 -80.625 350.3125 C-78.1868451 351.68415096 -75.97675064 353.09887208 -73.6875 354.6875 C-39.71475732 376.9713762 2.57780383 381.71640714 41.79931641 373.82470703 C77.44272147 366.20095838 109.36338572 345.33695796 129.62890625 314.98828125 C146.83674782 287.91939953 152.28875677 257.62855183 145.375 226.3125 C140.28999647 205.68670079 128.95087844 187.52767135 114.375 172.3125 C113.70210938 171.57644531 113.02921875 170.84039062 112.3359375 170.08203125 C85.83415837 142.04175932 46.88366787 129.76786654 9.25439453 128.37792969 C-28.92329335 127.5104021 -67.44950903 141.78317028 -95.42578125 167.79296875 Z " fill="#168FEB" transform="translate(255.625,-0.3125)"/>
</svg>
